This is my own rip.

General
Unique ID                        : 181184925464509232971435901017236920297 (0x884EF285078368DF802D882EEFEF57E9)
Format                           : Matroska
Format version                   : Version 4 / Version 2
File size                        : 2.96 GiB
Duration                         : 1h 45mn
Overall bit rate mode            : Variable
Overall bit rate                 : 4 031 Kbps
Encoded date                     : UTC 2013-04-02 23:36:26
Writing application              : mkvmerge v6.1.0 ('Old Devil') built on Mar  2 2013 14:32:37
Writing library                  : libebml v1.3.0 + libmatroska v1.4.0

Video
ID                               : 1
Format                           : AVC
Format/Info                      : Advanced Video Codec
Format profile                   : High@L4.1
Format settings, CABAC           : Yes
Format settings, ReFrames        : 7 frames
Codec ID                         : V_MPEG4/ISO/AVC
Duration                         : 1h 45mn
Bit rate mode                    : Variable
Bit rate                         : 3 567 Kbps
Maximum bit rate                 : 11.7 Mbps
Width                            : 1 280 pixels
Height                           : 692 pixels
Display aspect ratio             : 1.850
Frame rate                       : 23.976 fps
Color space                      : YUV
Chroma subsampling               : 4:2:0
Bit depth                        : 8 bits
Scan type                        : Progressive
Bits/(Pixel*Frame)               : 0.168
Stream size                      : 2.62 GiB (88%)
Writing library                  : x264 core 129 r2245 bc13772
Language                         : English
Default                          : Yes
Forced                           : No

Audio
ID                               : 2
Format                           : AC-3
Format/Info                      : Audio Coding 3
Mode extension                   : CM (complete main)
Codec ID                         : A_AC3
Duration                         : 1h 45mn
Bit rate mode                    : Constant
Bit rate                         : 384 Kbps
Channel(s)                       : 6 channels
Channel positions                : Front: L C R, Side: L R, LFE
Sampling rate                    : 48.0 KHz
Bit depth                        : 16 bits
Compression mode                 : Lossy
Stream size                      : 288 MiB (10%)
Language                         : English
Default                          : Yes
Forced                           : No

Menu
00:00:00.000                     : Restarting Lineup
00:03:06.520                     : Spring Training Arrivals (Opening Credits)
00:07:08.428                     : Locker Room War and Peace
00:09:35.575                     : Refinements/Rube's Problem
00:17:55.074                     : Making the Cut
00:18:43.873                     : Jake's New Assignment
00:20:57.673                     : Not Much Use for the Past
00:24:40.437                     : Indians Get the Bird
00:32:55.454                     : Redecorating
00:33:43.271                     : Rick's Image/Slump Time
00:41:58.558                     : A Far-East Import
00:44:15.361                     : Down, With Plenty of Excuses
00:47:19.025                     : No Marbles
00:48:31.784                     : Boxing Play by Play
00:52:06.999                     : Ready to Play Ball
00:53:36.922                     : A Rally: Rube, Willie and Pedro
00:57:22.920                     : Rube Counsels Rick
00:59:08.670                     : A Bike Ride
01:01:55.295                     : Comeback Montage
01:05:44.357                     : Big Catch for the Little Guy
01:07:28.378                     : A Business Thing
01:10:55.857                     : Win It for Rachel
01:13:02.795                     : Falling Apart/Guy in the Mirror
01:16:49.772                     : Win It for Lou
01:19:26.220                     : Parkman Makes His Mark
01:28:53.328                     : Pedro's Beautiful Pitch
01:31:45.667                     : Wild Thing's Back
01:34:45.577                     : Showdown With Parkman
01:37:20.023                     : The Indians Win It!
01:38:54.220                     : Celebrating With the Wrong Guy
01:40:22.205                     : End Credits
